<?xml version="1.0" encoding="UTF-8"?>
<svg version="1.1" xmlns="http://www.w3.org/2000/svg" width="96" height="96">
<path d="M0 0 C10.56 0 21.12 0 32 0 C33.98 3.63 35.96 7.26 38 11 C41.55625152 12.169164 43.13409086 12.45194694 46.6796875 12.29296875 C47.49245148 12.29960037 48.30521545 12.30623199 49.14260864 12.31306458 C51.72321391 12.32242348 54.29540969 12.25615738 56.875 12.1875 C58.63019561 12.18053751 60.38541833 12.17853204 62.140625 12.18164062 C66.42952195 12.17846029 70.7125004 12.10748871 75 12 C75 16.95 75 21.9 75 27 C79.95 27 84.9 27 90 27 C90 34.875 90 34.875 88.62304688 38.28295898 C88.31850586 39.05361694 88.01396484 39.8242749 87.70019531 40.61828613 C87.37631836 41.40296265 87.05244141 42.18763916 86.71875 42.99609375 C86.42387695 43.73605591 86.12900391 44.47601807 85.82519531 45.23840332 C84.72992377 47.9767226 83.61374691 50.70664298 82.5 53.4375 C80.025 59.563125 77.55 65.68875 75 72 C50.25 72 25.5 72 0 72 C0 48.24 0 24.48 0 0 Z " fill="#FEC330" transform="translate(3,12)"/>
<path d="M0 0 C10.56 0 21.12 0 32 0 C33.98 3.63 35.96 7.26 38 11 C41.55625152 12.169164 43.13409086 12.45194694 46.6796875 12.29296875 C47.49245148 12.29960037 48.30521545 12.30623199 49.14260864 12.31306458 C51.72321391 12.32242348 54.29540969 12.25615738 56.875 12.1875 C58.63019561 12.18053751 60.38541833 12.17853204 62.140625 12.18164062 C66.42952195 12.17846029 70.7125004 12.10748871 75 12 C75 16.95 75 21.9 75 27 C55.53 27.33 36.06 27.66 16 28 C11.05 40.87 6.1 53.74 1 67 C0.67 67 0.34 67 0 67 C0 44.89 0 22.78 0 0 Z " fill="#E8A112" transform="translate(3,12)"/>
</svg>
